HIERARCHY
ROOT hip
{
  OFFSET 0 0 0
  CHANNELS 6 Xposition Yposition Zposition Zrotation Yrotation Xrotation
  JOINT abdomen
  {
    OFFSET 0 20.6881 -0.73152
    CHANNELS 3 Zrotation Xrotation Yrotation
    JOINT chest
    {
      OFFSET 0 11.7043 -0.48768
      CHANNELS 3 Zrotation Xrotation Yrotation
      JOINT neck
      {
        OFFSET 0 22.1894 -2.19456
        CHANNELS 3 Zrotation Xrotation Yrotation
        JOINT head
        {
          OFFSET -0.24384 7.07133 1.2192
          CHANNELS 3 Zrotation Xrotation Yrotation
          JOINT leftEye
          {
            OFFSET 4.14528 8.04674 8.04672
            CHANNELS 3 Zrotation Xrotation Yrotation
            End Site
            {
              OFFSET 1 0 0
            }
          }
          JOINT rightEye
          {
            OFFSET -3.6576 8.04674 8.04672
            CHANNELS 3 Zrotation Xrotation Yrotation
            End Site
            {
              OFFSET 1 0 0
            }
          }
        }
      }
      JOINT rCollar
      {
        OFFSET -2.68224 19.2634 -4.8768
        CHANNELS 3 Zrotation Xrotation Yrotation
        JOINT rShldr
        {
          OFFSET -8.77824 -1.95073 1.46304
          CHANNELS 3 Zrotation Xrotation Yrotation
          JOINT rForeArm
          {
            OFFSET -28.1742 -1.7115 0.48768
            CHANNELS 3 Zrotation Xrotation Yrotation
            JOINT rHand
            {
              OFFSET -22.5879 0.773209 7.07136
              CHANNELS 3 Zrotation Xrotation Yrotation
              JOINT rThumb1
              {
                OFFSET -1.2192 -0.487915 3.41376
                CHANNELS 3 Zrotation Xrotation Yrotation
                JOINT rThumb2
                {
                  OFFSET -3.37035 -0.52449 3.41376
                  CHANNELS 3 Zrotation Xrotation Yrotation
                  End Site
                  {
                    OFFSET -1.78271 -1.18214 1.43049
                  }
                }
              }
              JOINT rIndex1
              {
                OFFSET -7.75947 0.938293 5.60832
                CHANNELS 3 Zrotation Xrotation Yrotation
                JOINT rIndex2
                {
                  OFFSET -2.54057 -0.884171 1.56538
                  CHANNELS 3 Zrotation Xrotation Yrotation
                  End Site
                  {
                    OFFSET -1.62519 -0.234802 1.16502
                  }
                }
              }
              JOINT rMid1
              {
                OFFSET -8.24714 1.18213 3.41376
                CHANNELS 3 Zrotation Xrotation Yrotation
                JOINT rMid2
                {
                  OFFSET -3.10165 -0.590103 1.0647
                  CHANNELS 3 Zrotation Xrotation Yrotation
                  End Site
                  {
                    OFFSET -2.48547 -0.328903 0.83742
                  }
                }
              }
              JOINT rRing1
              {
                OFFSET -8.82822 0.546677 1.51678
                CHANNELS 3 Zrotation Xrotation Yrotation
                JOINT rRing2
                {
                  OFFSET -2.60934 -0.819778 -0.0198488
                  CHANNELS 3 Zrotation Xrotation Yrotation
                  End Site
                  {
                    OFFSET -2.33842 -0.294052 0.168128
                  }
                }
              }
              JOINT rPinky1
              {
                OFFSET -8.27202 -0.0477905 -0.4584
                CHANNELS 3 Zrotation Xrotation Yrotation
                JOINT rPinky2
                {
                  OFFSET -1.82734 -0.647385 -0.700984
                  CHANNELS 3 Zrotation Xrotation Yrotation
                  End Site
                  {
                    OFFSET -1.69225 -0.51767 -0.607171
                  }
                }
              }
            }
          }
        }
      }
      JOINT lCollar
      {
        OFFSET 2.68224 19.2634 -4.8768
        CHANNELS 3 Zrotation Xrotation Yrotation
        JOINT lShldr
        {
          OFFSET 8.77824 -1.95073 1.46304
          CHANNELS 3 Zrotation Xrotation Yrotation
          JOINT lForeArm
          {
            OFFSET 28.1742 -1.7115 0.48768
            CHANNELS 3 Zrotation Xrotation Yrotation
            JOINT lHand
            {
              OFFSET 22.5879 0.773209 7.07136
              CHANNELS 3 Zrotation Xrotation Yrotation
              JOINT lThumb1
              {
                OFFSET 1.2192 -0.487915 3.41376
                CHANNELS 3 Zrotation Xrotation Yrotation
                JOINT lThumb2
                {
                  OFFSET 3.37035 -0.52449 3.41376
                  CHANNELS 3 Zrotation Xrotation Yrotation
                  End Site
                  {
                    OFFSET 1.78271 -1.18214 1.43049
                  }
                }
              }
              JOINT lIndex1
              {
                OFFSET 7.75947 0.938293 5.60832
                CHANNELS 3 Zrotation Xrotation Yrotation
                JOINT lIndex2
                {
                  OFFSET 2.54057 -0.884171 1.56538
                  CHANNELS 3 Zrotation Xrotation Yrotation
                  End Site
                  {
                    OFFSET 1.62519 -0.234802 1.16502
                  }
                }
              }
              JOINT lMid1
              {
                OFFSET 8.24714 1.18213 3.41376
                CHANNELS 3 Zrotation Xrotation Yrotation
                JOINT lMid2
                {
                  OFFSET 3.10165 -0.590103 1.0647
                  CHANNELS 3 Zrotation Xrotation Yrotation
                  End Site
                  {
                    OFFSET 2.48547 -0.328903 0.83742
                  }
                }
              }
              JOINT lRing1
              {
                OFFSET 8.82822 0.546677 1.51678
                CHANNELS 3 Zrotation Xrotation Yrotation
                JOINT lRing2
                {
                  OFFSET 2.60934 -0.819778 -0.0198488
                  CHANNELS 3 Zrotation Xrotation Yrotation
                  End Site
                  {
                    OFFSET 2.33842 -0.294052 0.168128
                  }
                }
              }
              JOINT lPinky1
              {
                OFFSET 8.27202 -0.0477905 -0.4584
                CHANNELS 3 Zrotation Xrotation Yrotation
                JOINT lPinky2
                {
                  OFFSET 1.82734 -0.647385 -0.700984
                  CHANNELS 3 Zrotation Xrotation Yrotation
                  End Site
                  {
                    OFFSET 1.69225 -0.51767 -0.607171
                  }
                }
              }
            }
          }
        }
      }
    }
  }
  JOINT rButtock
  {
    OFFSET -8.77824 4.35084 1.2192
    CHANNELS 3 Zrotation Xrotation Yrotation
    JOINT rThigh
    {
      OFFSET 0 -1.70687 -2.19456
      CHANNELS 3 Zrotation Xrotation Yrotation
      JOINT rShin
      {
        OFFSET 0 -36.8199 0.73152
        CHANNELS 3 Zrotation Xrotation Yrotation
        JOINT rFoot
        {
          OFFSET 0.73152 -45.1104 -5.12064
          CHANNELS 3 Zrotation Xrotation Yrotation
          End Site
          {
            OFFSET -1.1221 -3.69964 12.103
          }
        }
      }
    }
  }
  JOINT lButtock
  {
    OFFSET 8.77824 4.35084 1.2192
    CHANNELS 3 Zrotation Xrotation Yrotation
    JOINT lThigh
    {
      OFFSET 0 -1.70687 -2.19456
      CHANNELS 3 Zrotation Xrotation Yrotation
      JOINT lShin
      {
        OFFSET 0 -36.8199 0.73152
        CHANNELS 3 Zrotation Xrotation Yrotation
        JOINT lFoot
        {
          OFFSET -0.73152 -45.1104 -5.12064
          CHANNELS 3 Zrotation Xrotation Yrotation
          End Site
          {
            OFFSET 1.1221 -3.69964 12.103
          }
        }
      }
    }
  }
}
MOTION
Frames:	4
Frame Time:	0.03333
0.011112727224826813 61.80012822151184 0.12132497504353523 -2.3945415019989014 2.3583569526672363 5.762959003448486 -2.347414493560791 13.740030288696289 3.0829737186431885 3.1581835746765137 -9.109197616577148 0.981139063835144 -5.68848991394043 14.861412048339844 -5.3412861824035645 8.588519096374512 -24.54054069519043 -7.9202561378479 -0.11003518104553223 -0.09964164346456528 0.0075377714820206165 0.13845324516296387 0.03998660668730736 -0.07942987978458405 0.03452615812420845 -0.008839196525514126 -0.055282462388277054 52.399986267089844 38.05791091918945 10.477635383605957 -28.12936782836914 -31.44065284729004 69.57735443115234 0.07071805000305176 2.099757671356201 0.10631529986858368 -0.004650596994906664 -0.051158607006073 -0.02310357242822647 0.03297607973217964 0.06750117987394333 -0.055989500135183334 0.027219343930482864 -0.069539874792099 0.06269198656082153 7.727183818817139 5.471489429473877 0.4035593271255493 -0.014625154435634613 0.008278440684080124 0.011236880905926228 2.9241788387298584 0.9836195111274719 0.16829119622707367 -0.04584793746471405 0.025489268824458122 0.012144173495471478 10.32807731628418 0.72401362657547 0.07487515360116959 0.08110779523849487 0.10165585577487946 0.010734699666500092 2.328073024749756 -0.7788674235343933 -0.1864824891090393 0.021684158593416214 -0.12086106091737747 0.0650486871600151 -58.030731201171875 38.77189254760742 -22.06009864807129 28.282621383666992 -33.916812896728516 -73.66513061523438 0.3429185450077057 -18.017414093017578 2.625340461730957 -0.017222648486495018 -0.02985803782939911 0.007368339691311121 -0.01574030891060829 -0.05950314551591873 0.06936738640069962 -0.02114437334239483 -0.07829201221466064 0.062016602605581284 -7.837863922119141 5.563117980957031 -0.42040637135505676 -0.002521062968298793 -0.0033594255801290274 0.013141120783984661 -2.8839950561523438 0.9730295538902283 -0.1407759040594101 0.028863202780485153 -0.020266881212592125 -0.011922831647098064 -10.174129486083984 0.7188804745674133 -0.0779629722237587 -0.012761726975440979 -0.08531409502029419 -0.046283576637506485 -2.1252543926239014 -0.7443501949310303 0.21841655671596527 0.030580470338463783 -0.04424847289919853 -0.04241446778178215 -28.30068016052246 -44.39240646362305 -23.663585662841797 -1.3351495265960693 66.9561767578125 1.9517954587936401 -4.92189359664917 -12.318319320678711 -13.515530586242676 0.00012515217531472445 0.04670131206512451 0.021539587527513504 34.51708984375 -44.168453216552734 27.186342239379883 1.6553107500076294 69.87383270263672 -2.281301498413086 4.363417625427246 -11.16066837310791 14.095964431762695
0.08352696895599365 62.24893927574158 0.07760962471365929 -2.179114818572998 1.0034301280975342 5.258424758911133 -2.1810524463653564 13.751843452453613 2.7573297023773193 2.977932929992676 -8.993858337402344 0.9734517335891724 -5.446447849273682 14.950972557067871 -5.366912841796875 8.011662483215332 -24.17544937133789 -8.178568840026855 -0.10751902312040329 -0.05383245646953583 0.08337926864624023 0.166377991437912 0.027243364602327347 -0.0581696592271328 0.02290605939924717 0.028641387820243835 -0.038765888661146164 53.956512451171875 37.180938720703125 8.502496719360352 -28.242908477783203 -31.369510650634766 69.61695098876953 0.19481080770492554 1.8327372074127197 -0.10734736919403076 -0.09693323820829391 -0.022485874593257904 -0.03641973435878754 0.0018114570993930101 0.05559602752327919 -0.07575298845767975 -0.02693795971572399 -0.1076572835445404 0.07238968461751938 7.721716403961182 5.416374683380127 0.43536898493766785 0.011828719638288021 -0.05653097853064537 0.04343155398964882 2.898973226547241 0.9477199912071228 0.17843754589557648 0.010217555798590183 0.028746001422405243 -0.006142055615782738 10.252129554748535 0.7797501683235168 0.0926467776298523 0.0030845103319734335 0.02611236274242401 -0.01488108467310667 2.30295729637146 -0.7695211172103882 -0.11653202772140503 0.0370391309261322 -0.017813729122281075 0.0629749670624733 -58.46076583862305 39.362701416015625 -20.80416488647461 28.207189559936523 -33.40024185180664 -73.02377319335938 0.16091452538967133 -16.371667861938477 2.469572067260742 -0.08183838427066803 -0.000596330501139164 0.026746995747089386 0.009041658602654934 -0.009746694006025791 0.020514577627182007 -0.006692809518426657 0.007358835078775883 0.05836508050560951 -7.767822265625 5.565524578094482 -0.4302976131439209 0.05870009958744049 -0.021459076553583145 0.006383910309523344 -2.896106004714966 1.059084415435791 -0.061378758400678635 0.019421782344579697 -0.0605708509683609 0.0046608601696789265 -10.27595329284668 0.6622748374938965 -0.0592292845249176 -0.0758197233080864 -0.06999171525239944 0.0003445885085966438 -2.1406664848327637 -0.7627255320549011 0.21068385243415833 0.005169327836483717 0.006535389460623264 -0.03675684332847595 -27.79013442993164 -43.566802978515625 -22.81654167175293 -1.048953652381897 66.74100494384766 1.657523274421692 -5.3837385177612305 -13.084190368652344 -13.967851638793945 0.0300604235380888 0.04545651003718376 0.019371798262000084 33.36661911010742 -43.59874725341797 26.71914291381836 1.2343847751617432 69.91651916503906 -1.7514913082122803 4.224716663360596 -10.185136795043945 14.024619102478027
0.2580661326646805 45.797738432884216 -2.8568562120199203 -10.282651901245117 -4.530670166015625 21.344623565673828 7.337970733642578 27.02979850769043 -5.484640598297119 -0.2058141827583313 -9.807733535766602 -2.2384252548217773 -4.086981296539307 20.84870719909668 4.349488735198975 7.192127704620361 -55.671653747558594 12.580238342285156 -0.048550739884376526 0.09352590143680573 -0.08130958676338196 0.0033817442599684 -0.10604547709226608 0.19712011516094208 0.10555560886859894 -0.07201964408159256 0.006192799657583237 36.184574127197266 40.1358642578125 36.6722297668457 -26.028182983398438 -21.65232276916504 53.7868537902832 -4.791951656341553 -48.85487365722656 -10.500887870788574 0.3174671530723572 -0.08913721144199371 -0.023981625214219093 -0.4758286774158478 -0.09273874014616013 -0.043235376477241516 0.10903426259756088 0.029395736753940582 0.4723835289478302 7.562112808227539 5.369247913360596 0.5589376091957092 -0.07842782884836197 -0.36274662613868713 -0.019207369536161423 2.8299734592437744 0.6613848209381104 0.034677233546972275 -0.465224951505661 -0.37440818548202515 0.22331228852272034 10.309369087219238 0.9885632395744324 0.058599211275577545 -0.01987280882894993 -0.21397387981414795 -0.8074786067008972 2.670449733734131 -0.526187002658844 -0.3397480845451355 0.20008736848831177 -0.09709686785936356 0.2970023453235626 -18.904193878173828 51.94901657104492 -89.20240783691406 20.106571197509766 -13.884028434753418 -41.8668327331543 -0.0051430752500891685 -7.413380146026611 0.4842647612094879 0.37879082560539246 -0.5372716784477234 -0.09709327667951584 -0.06241316720843315 0.2581799626350403 0.1472630649805069 0.36188656091690063 0.4155816435813904 -0.026103299111127853 -8.435961723327637 5.662889003753662 -0.5398042798042297 -0.3640263080596924 -0.5089333653450012 -0.2561742067337036 -3.29646372795105 1.1735851764678955 -0.3858933746814728 -0.1275840550661087 -0.16793397068977356 0.010346735827624798 -9.765358924865723 0.2741850018501282 -0.10321201384067535 -0.06281274557113647 0.23233085870742798 0.013832428492605686 -2.296116352081299 -1.1118179559707642 -0.13306036591529846 0.21452273428440094 0.07313133776187897 0.3257240951061249 7.461231708526611 -39.77140426635742 18.505016326904297 -1.035763144493103 46.6310920715332 0.19804368913173676 5.446258068084717 16.61933708190918 -18.079952239990234 0.3814527094364166 -0.2716872990131378 0.04719439893960953 -161.96035766601562 -70.51800537109375 -167.8568572998047 179.9423828125 55.7971076965332 -178.05955505371094 -2.839381694793701 9.508479118347168 -0.8229943513870239
0.33440999686717987 30.148929357528687 -9.001782536506653 -10.616866111755371 -4.476414680480957 17.236173629760742 5.500603675842285 30.029468536376953 -4.892322063446045 -0.06408275663852692 -10.465188026428223 -4.053385257720947 -5.68143367767334 20.032730102539062 3.6972291469573975 8.84981918334961 -54.62589645385742 10.561943054199219 -0.09391739219427109 -0.09345130622386932 -0.07899489998817444 0.33835726976394653 -0.1533803790807724 0.13646754622459412 0.4383348822593689 0.3757949769496918 0.050354406237602234 28.492225646972656 27.167198181152344 48.08759689331055 -24.527040481567383 -21.27414321899414 50.755558013916016 -4.536195278167725 -48.9102668762207 -10.09768295288086 0.5617581605911255 -0.27122050523757935 0.27082961797714233 -0.6336376667022705 -0.0917276069521904 0.21103616058826447 0.5224118828773499 0.011955141089856625 0.14707161486148834 8.30533218383789 4.986522197723389 0.5018548369407654 0.25332534313201904 -0.5402184128761292 -0.09863607585430145 2.100552558898926 1.030311942100525 0.38143390417099 -0.7683392763137817 -0.7116878628730774 0.04591037705540657 9.497870445251465 0.05405038595199585 0.3341296911239624 -0.3193433880805969 -0.37823179364204407 -1.3660707473754883 2.710757255554199 -0.6624070405960083 -0.035101376473903656 -0.13405604660511017 -0.2876465916633606 0.028554921969771385 -10.675304412841797 38.262596130371094 -111.82891082763672 17.857833862304688 -10.775476455688477 -36.882354736328125 -0.2816387116909027 2.329402446746826 -0.7502145767211914 1.2507685422897339 -0.2010476142168045 -0.40642881393432617 -0.40985623002052307 0.07673939317464828 -0.3781288266181946 0.4076024889945984 0.8959148526191711 -0.21624895930290222 -9.669119834899902 5.107240676879883 -0.40370792150497437 -0.6166046261787415 -1.003793716430664 0.05183529853820801 -3.640353202819824 1.1118848323822021 -0.7697161436080933 -0.39468276500701904 0.5795465707778931 0.405658096075058 -9.933095932006836 -0.3041532039642334 0.02910272218286991 -0.31458497047424316 0.45546287298202515 -0.02597752958536148 -2.393805980682373 -1.5101910829544067 0.09376511722803116 0.3775871992111206 -0.16219964623451233 0.884684145450592 6.305355548858643 -44.56380081176758 9.161759376525879 -3.6457676887512207 57.36134719848633 4.063155651092529 1.9541232585906982 8.766016006469727 -21.358154296875 0.7218000292778015 -0.4184245765209198 0.5509656071662903 -156.11488342285156 -76.64424896240234 -156.363525390625 -179.84036254882812 50.83237075805664 -179.57859802246094 -0.9446889162063599 10.827777862548828 8.600688934326172
